<svg xmlns="http://www.w3.org/2000/svg" width="53.248" height="40" viewBox="0 0 53.248 40">
<style type="text/css">
	.st0{fill:#006C35;}
	.st1{fill:#FFFFFF;}
</style>
<g id="g4701" transform="translate(0,100)">
	<path id="_x32_1461584" class="st0" d="M53.2-60v-40H0v40H53.2z"/>
	<g id="g4699" transform="matrix(0.064,0,0,0.064,0,468)">
		<g id="g4695" transform="matrix(18.0964,0,0,17.213631,246.63518,-8836.1551)">
			<g id="g4623">
				<path id="path4621" class="st1" d="M20.1,7.5C20.4,7.2,20.7,7,21,6.8c-0.1,0.4-0.4,0.7-0.7,0.9c-0.1,0.1-0.1,0.3-0.1,0.5
					c-0.1,0-0.2,0-0.2-0.1c0.1,1,0.2,2,0.2,3c0,0.1,0,0.2,0.1,0.3c0.4,0.4,0.9,0.8,1.2,1.3c0.1,0.2,0.2,0.4,0.3,0.7
					c0.1-0.4,0.1-0.8,0-1.2c-0.2-1.5-0.3-3-0.4-4.6c0-0.2,0-0.4,0-0.6c0-0.2,0.2-0.3,0.3-0.3C21.9,7,21.9,7.1,22,7.2
					c0.1,0.3,0.3,0.7,0.2,1c-0.1,0-0.2-0.1-0.2-0.1c0.1,1,0.2,2.1,0.3,3.1c0,0.7,0.1,1.4,0,2.1c-0.1,0.6-0.4,1.3-1,1.7
					c-0.4,0.3-1,0.5-1.5,0.6c-0.2,0-0.4,0.1-0.6,0c0.2-0.1,0.5-0.2,0.7-0.3c0.3-0.2,0.7-0.3,1-0.5c0.3-0.2,0.6-0.4,0.8-0.7
					c-0.3-0.7-0.7-1.4-1.3-1.9c0,0.7,0.1,1.5-0.1,2.2c0,0.2-0.1,0.3-0.2,0.4c-0.1-0.3-0.1-0.6-0.1-0.9c-0.1-0.7-0.1-1.4-0.2-2
					c0-0.1-0.1-0.2-0.2-0.3c-0.4-0.3-0.8-0.7-1.1-1.1c0,0.4,0.1,0.8,0.1,1.2c0,0.6,0.1,1.1,0.1,1.7c0,0.4,0,0.8-0.1,1.2
					c-0.1,0.4-0.5,0.7-0.8,0.7c-0.2,0-0.4,0-0.6,0c-0.2,0-0.4-0.2-0.5-0.4c-0.1-0.2-0.2-0.5-0.3-0.7c-0.2,0-0.4,0.1-0.5,0.2
					c-0.3,0.3-0.3,0.7-0.5,1c-0.1,0.2-0.2,0.4-0.4,0.5c-0.2,0.1-0.4,0.1-0.6,0c-0.3-0.2-0.5-0.5-0.6-0.8c-0.1-0.3,0-0.5-0.1-0.8
					c-0.1-0.2,0-0.5,0-0.7c0.1-0.4,0.4-0.8,0.6-1c-0.4-0.3-0.8-0.7-1.1-1c0,1,0.1,1.9,0,2.9c0,0.2-0.1,0.4-0.2,0.5
					c0-0.2-0.1-0.4-0.1-0.6c-0.1-1.1-0.2-2.1-0.2-3.2c0-0.1,0-0.3-0.1-0.3c-0.4-0.4-0.8-0.8-1.1-1.2C11.3,9.2,11.1,9,11,8.6
					c0-0.1-0.1-0.3,0-0.4c0.1,0,0.3,0.1,0.4,0.1c0.2,0.1,0.4,0.3,0.6,0.5c0.1,0.1,0.1,0.2,0.2,0.3c-0.1,0-0.2,0-0.3,0
					c0.2,0.3,0.5,0.7,0.8,0.9c0-0.9-0.1-1.8-0.2-2.7c0-0.1,0-0.3,0.1-0.4c0.1-0.1,0.2-0.1,0.3-0.2c0.2,0.3,0.3,0.6,0.4,0.9
					c0,0.1,0,0.3,0,0.4c-0.1,0-0.2,0-0.2-0.1c0.1,0.7,0.1,1.4,0.2,2.2c0,0.1,0,0.2,0,0.3c0,0.1,0.1,0.1,0.2,0.2
					c0.5,0.4,0.9,0.8,1.4,1.2c0.3-0.3,0.6-0.5,0.9-0.8c0.1-0.1,0.1-0.1,0.2-0.2c0.1-0.1,0-0.1,0-0.2c-0.1-0.9-0.2-1.7-0.2-2.6
					c0-0.3-0.1-0.6-0.1-0.9c0-0.2,0.1-0.4,0.3-0.4C16,7,16,7,16.1,7.1c0.1,0.2,0.2,0.5,0.3,0.8c0,0.1,0,0.3,0,0.4
					c-0.1,0-0.2-0.1-0.2-0.1c0.1,0.8,0.2,1.6,0.3,2.5c0.2-0.2,0.4-0.3,0.6-0.5c0.2-0.2,0.4-0.4,0.6-0.6c-0.2-0.3-0.5-0.5-0.8-0.8
					c-0.2-0.2-0.4-0.3-0.4-0.6c-0.1-0.2,0-0.4,0-0.5c0.3,0.1,0.6,0.2,0.8,0.4c0.2,0.1,0.3,0.3,0.5,0.4c0-0.3-0.1-0.7-0.1-1
					c0-0.1,0-0.3,0.1-0.4C17.8,7,17.9,6.9,18,6.9c0.2,0.3,0.3,0.6,0.4,0.9c0,0.1,0,0.3,0,0.4c-0.1,0-0.2,0-0.2-0.1
					c0,0.3,0.1,0.5,0.1,0.8c0.3-0.2,0.6-0.5,0.9-0.8c0.1-0.1,0.3-0.2,0.3-0.4c0-0.2,0-0.4,0-0.6c0-0.2,0.2-0.3,0.3-0.3
					C20,7.1,20,7.3,20.1,7.5L20.1,7.5z M18.5,9.4c-0.1,0.1-0.2,0.1-0.1,0.2c0,0.1,0.1,0.2,0.2,0.2c0.4,0.4,0.8,0.8,1.2,1.1
					c0-0.4-0.1-0.8-0.1-1.2c0-0.4,0-0.8-0.1-1.2C19.2,8.8,18.8,9.1,18.5,9.4L18.5,9.4z M17.5,8.7c0.1,0.1,0.2,0.2,0.3,0.3
					c0-0.1,0-0.2,0-0.3C17.7,8.7,17.6,8.7,17.5,8.7L17.5,8.7z M16.6,11.1c-0.1,0.1-0.1,0.1-0.1,0.2c0,0.5,0,1-0.1,1.5
					c0,0.1-0.1,0.2-0.2,0.3c-0.1-0.5-0.1-1-0.2-1.5c-0.3,0.2-0.6,0.5-0.8,0.8c0.2,0.2,0.3,0.4,0.4,0.6c0.1,0.3,0,0.7-0.3,1
					c-0.3,0.3-0.8,0.3-1.2,0.4c0.1,0.3,0.1,0.6,0.3,0.8c0.1,0.1,0.3,0.3,0.4,0.2c0.2-0.1,0.3-0.2,0.4-0.4c0.1-0.4,0.3-0.7,0.5-1
					c0.2-0.3,0.4-0.5,0.7-0.5c0.1,0,0.2,0,0.3,0.1c0.1,0.2,0.2,0.5,0.3,0.7c0.3,0.4,0.9,0.4,1.2,0.1c0.1-0.1,0.1-0.3,0.1-0.4
					c-0.2-1.3-0.3-2.7-0.4-4C17.4,10.3,17,10.7,16.6,11.1z M14.2,13.4c-0.1,0.1-0.1,0.2-0.1,0.4c0.3,0,0.6,0,0.9-0.2
					c0.1-0.1,0.2-0.1,0.2-0.3c0-0.2-0.2-0.4-0.4-0.5C14.6,12.9,14.4,13.1,14.2,13.4L14.2,13.4z"/>
			</g>
			<path id="path4625" class="st1" d="M1.7,6.9c0.1-0.1,0.2,0,0.2,0.1c0.2,0.2,0.3,0.4,0.4,0.7c-0.1,0-0.2,0-0.2,0
				c0,0.4,0.3,0.7,0.4,1.1c0.1,0.2,0.1,0.5,0,0.7c-0.1,0.3-0.3,0.6-0.6,0.7c-0.4,0.1-0.8,0-1.1-0.3C0.7,9.6,0.6,9.4,0.5,9.1
				C0.5,9.4,0.3,9.8,0.1,10c-0.1,0.2-0.3,0.3-0.5,0.4c0,0.9,0.1,1.8,0.1,2.7c0,0.3,0,0.6-0.3,0.7c-0.1-0.4-0.1-0.7-0.1-1.1
				c-0.1-0.7-0.1-1.5-0.2-2.2c-0.2-0.1-0.4-0.1-0.6-0.3c-0.3-0.3-0.4-0.6-0.3-1c0-0.3,0.1-0.6,0.2-0.8c-0.1,0.1-0.2,0.2-0.2,0.4
				C-2,9.2-2.1,9.6-2.3,10.1c-0.1,0.2-0.2,0.3-0.4,0.3c-0.2,0-0.5,0-0.6-0.1c-0.2-0.2-0.2-0.5-0.2-0.7c0-0.3,0-0.5,0.1-0.8
				c0.1-0.1,0.2-0.2,0.3-0.3c-0.1,0.1-0.2,0.3-0.2,0.4c0,0.2,0,0.5,0.1,0.7c0,0.1,0.1,0.3,0.2,0.4c0.2,0.1,0.4,0.1,0.6,0
				c0.1-0.1,0.1-0.2,0.2-0.3C-2.3,9.2-2.2,8.8-2,8.4C-1.9,8-1.6,7.7-1.3,7.6c0,0.5-0.2,0.9-0.3,1.4c0,0.2,0,0.4,0.1,0.6
				c0.1,0.1,0.3,0.2,0.4,0.2C-1,9.2-1,8.5-1.1,7.9c0-0.2-0.1-0.5,0-0.7c0-0.2,0.2-0.2,0.3-0.3c0.3,0.4,0.4,0.9,0.4,1.3
				c-0.1,0-0.2,0-0.3-0.1c0.1,0.6,0.1,1.1,0.2,1.7C-0.2,9.8,0,9.6,0.1,9.4C0.4,9,0.4,8.5,0.3,8C0.3,7.9,0.2,7.7,0.1,7.5
				c0-0.2,0.1-0.4,0.2-0.4c0.1,0,0.1,0.1,0.1,0.1c0.1,0.2,0.1,0.5,0.2,0.7c0.1,0.3,0,0.7,0.1,1c0.1,0.3,0.3,0.5,0.5,0.7
				c0.2,0.1,0.4,0.1,0.6,0.1c0.1,0,0.2-0.1,0.2-0.2c0.1-0.2,0-0.4-0.1-0.6C1.9,8.3,1.6,7.9,1.5,7.4C1.5,7.2,1.5,7,1.7,6.9L1.7,6.9z"
				/>
			<path id="path4627" class="st1" d="M10.9,7.4C11,7.2,11.2,7,11.4,6.9c-0.1,0.2-0.2,0.3-0.2,0.5c-0.1,0.1-0.1,0.2-0.1,0.4
				c0.2,0,0.3,0,0.5-0.1c0,0.1-0.1,0.3-0.2,0.3c-0.1,0.1-0.3,0.2-0.4,0C10.8,7.9,10.8,7.6,10.9,7.4L10.9,7.4z"/>
			<g id="g4631">
				<path id="path4629" class="st1" d="M2.6,7.1C2.7,7,2.8,7,2.9,6.9c0.2,0.3,0.3,0.6,0.4,1c0,0.1,0,0.3,0,0.4
					c-0.1,0-0.2-0.1-0.2-0.1c0.1,0.6,0.2,1.3,0.3,1.9C3.7,10,4,9.7,4.4,9.6c0.1-0.1,0.2-0.1,0.4-0.1c0,0.1-0.1,0.2-0.2,0.3
					c-0.4,0.2-0.8,0.4-1.2,0.6c0,0.3,0.1,0.6,0.1,1c0.2-0.2,0.3-0.5,0.6-0.6c0,0.2,0,0.4,0.1,0.5c0.2,0.2,0.4,0.1,0.6-0.1
					c0-0.3,0.1-0.5,0.1-0.7c0.1,0,0.2,0,0.2,0.1c0.1,0.2,0.1,0.5,0,0.7c-0.1,0.3-0.3,0.5-0.5,0.6c-0.1,0.1-0.3,0.1-0.5,0
					c-0.2-0.1-0.3-0.2-0.4-0.4c-0.1,0.2-0.2,0.5-0.3,0.7c0,0.6-0.2,1.1-0.6,1.6c-0.6,0.8-1.4,1.2-2.3,1.5c-0.5,0.1-1,0.3-1.6,0.3
					c-0.3,0-0.6-0.1-0.8-0.2c-0.1-0.1-0.2-0.2-0.3-0.2c-0.1,0-0.3,0-0.4,0c-0.3,0-0.7,0-1,0c0.4-0.1,0.8-0.2,1.2-0.4
					c-0.1-0.8,0-1.5,0.4-2.2c0.1-0.2,0.2-0.3,0.4-0.5c-0.1,0.2-0.3,0.5-0.3,0.7c-0.1,0.6-0.1,1.2,0,1.7c0.3-0.1,0.5-0.2,0.8-0.3
					c0.6-0.3,1.2-0.6,1.8-1c0.2-0.2,0.4-0.3,0.6-0.5c0.1-0.1,0.1-0.2,0.1-0.4c-0.3,0.1-0.6,0.2-0.9,0.2c-0.2,0-0.4-0.1-0.5-0.2
					s-0.1-0.4-0.1-0.6c0-0.3,0.1-0.5,0.3-0.7C0.4,10.9,0.8,10.9,1,11c0.2,0.1,0.4,0.4,0.5,0.6c0.4-0.1,0.6-0.5,1-0.7
					c0,0.2,0,0.4,0.1,0.6c0.1,0.1,0.2,0.1,0.4,0.1c0-0.3-0.1-0.6-0.1-0.9c-0.1-1-0.3-2.1-0.4-3.2C2.5,7.4,2.5,7.2,2.6,7.1L2.6,7.1z
					 M0.3,11.7c0,0.1,0,0.1,0.1,0.1c0.2,0.1,0.4,0,0.6,0c-0.1-0.1-0.2-0.3-0.4-0.3C0.5,11.5,0.4,11.5,0.3,11.7L0.3,11.7z M1.8,12.1
					c0,0.2,0,0.4,0,0.6c-0.1,0.3-0.4,0.6-0.6,0.8c-0.5,0.4-1.1,0.7-1.6,1C-0.7,14.7-1,14.8-1.3,15c0.3,0,0.7,0,1-0.1
					c0.5,0,1-0.2,1.5-0.4c0.5-0.2,1-0.5,1.4-0.9c0.2-0.2,0.4-0.5,0.5-0.9c0-0.2,0-0.3,0-0.5c-0.2,0-0.4,0-0.6-0.1
					c-0.1-0.1-0.2-0.3-0.3-0.4C2.1,11.9,1.9,12,1.8,12.1L1.8,12.1z"/>
			</g>
			<path id="path4633" class="st1" d="M7.2,7.1C7.3,7,7.4,7,7.5,7.1c0.2,0.1,0.3,0.4,0.3,0.6c0,0.1-0.1,0.2-0.1,0.3
				c0-0.2,0-0.3-0.1-0.5C7.5,7.4,7.3,7.4,7.2,7.3C7.1,7.2,7.1,7.1,7.2,7.1z"/>
			<path id="path4635" class="st1" d="M9.9,7.2C9.9,7.1,10,7,10.1,7c0.3,0.1,0.4,0.4,0.6,0.7c-0.1,0-0.2,0-0.3,0
				c0,0.2,0.1,0.4,0.2,0.5c0.1,0.3,0.2,0.5,0.3,0.8c0,0.3,0,0.7-0.2,0.9c-0.4,0.5-1.2,0.4-1.5-0.1C9,9.6,9,9.4,8.9,9.2
				c-0.1,0.4-0.3,0.9-0.7,1.1c-0.4,0.2-0.9,0.2-1.3,0c-0.2-0.2-0.4-0.4-0.4-0.7c0-0.4,0.1-0.8,0.2-1.2C6.6,8.4,6.5,8.6,6.5,8.7
				C6.3,9.1,6.3,9.6,6,10c-0.1,0.2-0.3,0.4-0.5,0.4c-0.2,0-0.5-0.1-0.6-0.3C4.8,10,4.8,9.8,4.8,9.5c0-0.3,0.1-0.7,0.2-1
				C5,9,4.9,9.4,5.1,9.8c0.1,0.2,0.4,0.3,0.6,0.2C5.9,9.9,5.9,9.7,6,9.5c0.1-0.4,0.3-0.9,0.5-1.3C6.6,8,6.7,7.9,6.8,7.8
				C6.9,7.7,7,7.7,7.1,7.7c0,0.4-0.2,0.7-0.2,1.1C6.8,9,6.8,9.4,7,9.7C7.2,9.9,7.6,10,8,9.9c0.5-0.2,0.8-0.6,0.8-1.1
				c0-0.3,0-0.6-0.1-0.9C8.6,7.7,8.5,7.6,8.5,7.4c0-0.2,0.2-0.3,0.3-0.4C8.9,7.2,9,7.4,9,7.6C9.1,8,9.1,8.5,9.2,9
				c0.1,0.3,0.2,0.5,0.5,0.6c0.2,0.1,0.5,0.1,0.7,0c0.1-0.1,0.2-0.3,0.1-0.4c-0.1-0.5-0.4-0.9-0.6-1.3C9.9,7.7,9.9,7.4,9.9,7.2
				L9.9,7.2z"/>
			<path id="path4637" class="st1" d="M14.4,7.1c0.1-0.1,0.3,0,0.4,0.1c0,0.1,0,0.1-0.1,0.2c-0.1,0-0.2-0.1-0.3-0.1
				c-0.1,0.2-0.2,0.5-0.2,0.7c0-0.1-0.1-0.2-0.2-0.4c-0.1-0.1-0.2-0.2-0.3-0.3c0-0.1,0.1-0.2,0.2-0.2c0.1,0,0.2,0.2,0.3,0.3
				C14.3,7.3,14.3,7.2,14.4,7.1L14.4,7.1z"/>
			<path id="path4639" class="st1" d="M-3.5,7.6C-3.4,7.4-3.2,7.2-3,7.1C-3,7.2-3.1,7.4-3.2,7.5c-0.1,0.1-0.1,0.2-0.1,0.4
				c0.2,0,0.3,0,0.5-0.1c0,0.1-0.1,0.3-0.2,0.4c-0.1,0.1-0.3,0.1-0.4,0.1C-3.6,8.1-3.6,7.8-3.5,7.6z"/>
			<g id="g4643">
				<path id="path4641" class="st1" d="M5,7.3c0-0.2,0.4-0.2,0.5,0c0.1,0.1,0.1,0.2,0.2,0.4C5.7,7.7,5.7,7.9,5.7,8
					C5.6,8.2,5.5,8.4,5.5,8.6c0.1,0,0.1-0.1,0.2-0.1c0,0.1,0,0.3-0.1,0.3C5.4,8.9,5.2,8.8,5.3,8.6c0-0.3,0.3-0.5,0.2-0.9
					C5.2,8.2,4.8,8.5,4.3,8.6C4.5,8.4,4.8,8.3,5,8.1C5.1,8,5.2,7.8,5.2,7.7C5.1,7.6,5,7.5,5,7.3L5,7.3z M5.2,7.3
					c0,0.1,0.1,0.1,0.2,0.2C5.3,7.4,5.3,7.3,5.2,7.3z"/>
			</g>
			<path id="path4645" class="st1" d="M3.5,7.4c0.1,0,0.2-0.1,0.3,0c0.2,0.2,0.4,0.6,0.3,0.9C4,8.3,4,8.1,3.9,8
				C3.8,7.8,3.6,7.7,3.5,7.4L3.5,7.4z"/>
			<path id="path4647" class="st1" d="M1.4,7.6C1.5,7.7,1.5,7.8,1.5,8C1.3,8,1.2,8.1,1,8.1c-0.1,0-0.2,0-0.2-0.1c0-0.1,0-0.2,0-0.3
				C0.9,7.8,0.9,7.9,1,8c0,0,0.1,0,0.1-0.1c0-0.1,0-0.2,0-0.3c0,0,0.1,0,0.1,0c0,0.1,0,0.2,0,0.2c0.1,0,0.1,0,0.2,0
				C1.4,7.8,1.4,7.7,1.4,7.6L1.4,7.6z"/>
			<path id="path4649" class="st1" d="M14.9,7.8c0.1,0,0.3-0.1,0.4-0.1c-0.1,0.1-0.1,0.2-0.2,0.2c-0.5,0.2-0.9,0.3-1.4,0.6
				c0,0.1,0.1,0.2,0.1,0.3c-0.1,0-0.2,0-0.3-0.1c-0.1-0.1-0.1-0.2,0-0.3c0.1-0.1,0.2-0.1,0.2-0.1C14.1,8.1,14.5,7.9,14.9,7.8
				L14.9,7.8z"/>
			<path id="path4651" class="st1" d="M7.9,8.1C8,8.1,8.1,8.1,8.1,8c0,0.2,0.1,0.3,0.1,0.5c0.1,0.2,0,0.4-0.2,0.4
				C7.9,9,7.8,8.9,7.7,8.8C7.6,8.9,7.5,9,7.4,9C7.1,9,7,8.7,7.1,8.5c0-0.1,0.1-0.2,0.2-0.3c0,0.1-0.1,0.3,0,0.4
				c0,0.1,0.1,0.1,0.2,0.1c0-0.2,0-0.3,0.1-0.5c0-0.1,0.1-0.1,0.2-0.1c0,0.1,0,0.3,0,0.4c0,0.1,0.1,0.1,0.2,0.2
				C8,8.5,7.9,8.3,7.9,8.1L7.9,8.1z"/>
			<path id="path4653" class="st1" d="M1,8.4c0.1,0,0.2,0,0.3,0.1c0.2,0.2,0.3,0.6,0.3,0.9C1.5,9.2,1.4,8.9,1.3,8.8
				C1.1,8.7,1,8.5,1,8.4z"/>
			<path id="path4655" class="st1" d="M14.8,9.2c0-0.1,0.1-0.1,0.2-0.1c0,0.2,0.1,0.3,0.1,0.5S15.2,9.9,15,10
				c-0.2,0.1-0.3,0-0.4-0.1c-0.1,0.1-0.2,0.2-0.4,0.1c-0.2,0-0.3-0.3-0.3-0.5c0-0.1,0.1-0.2,0.2-0.3c0,0.2-0.1,0.3,0,0.5
				c0,0.1,0.1,0.1,0.2,0.1c0-0.2,0-0.4,0.1-0.5c0,0,0.1-0.1,0.2-0.1c0,0.2,0,0.3,0.1,0.5c0,0.1,0.1,0.1,0.2,0.1
				C14.9,9.6,14.8,9.4,14.8,9.2L14.8,9.2z"/>
			<path id="path4657" class="st1" d="M20.4,9.5c0-0.1,0-0.2,0.1-0.2c0.2,0,0.3,0.1,0.4,0.3c0.1,0.3,0.2,0.6,0.1,0.9
				c-0.1-0.3-0.1-0.6-0.3-0.8C20.6,9.6,20.4,9.6,20.4,9.5L20.4,9.5z"/>
			<path id="path4659" class="st1" d="M11.2,10.1c0.1-0.1,0.2-0.1,0.3-0.1c0.1,0.1,0.1,0.4,0,0.5c-0.2,0.3-0.5,0.4-0.8,0.4
				c0.2-0.1,0.4-0.2,0.6-0.3c0.1-0.1,0.1-0.2,0.1-0.3c-0.1,0-0.2,0-0.3,0C11.1,10.2,11.1,10.2,11.2,10.1L11.2,10.1z"/>
			<path id="path4661" class="st1" d="M15.6,10.3c0.1,0,0.1-0.1,0.2,0c0,0.2-0.2,0.2-0.3,0.3c-0.5,0.2-0.9,0.5-1.4,0.7
				c0,0,0-0.1-0.1-0.1c0.3-0.2,0.6-0.4,0.8-0.5C15.1,10.5,15.4,10.4,15.6,10.3L15.6,10.3z"/>
			<g id="g4665">
				<path id="path4663" class="st1" d="M6.6,10.7c0-0.1,0.1-0.2,0.1-0.2c0.4,0.4,0.7,0.9,0.8,1.5c0.2,0.5,0.2,1.1,0.3,1.6
					c0.1,0.3,0.1,0.6,0.3,0.8c0.1,0.2,0.3,0.2,0.4,0.3c0-0.2,0.1-0.4,0.2-0.5c0.5-0.3,1-0.5,1.5-0.7c-0.4,0-0.9,0-1.3,0
					c-0.4,0-0.7,0-1.1,0c0-0.1,0-0.3,0.1-0.4c0.2-0.3,0.4-0.4,0.7-0.6c0.4-0.2,0.8-0.4,1.3-0.5c-0.1-0.1-0.3-0.3-0.2-0.5
					c0.1-0.2,0.3-0.5,0.5-0.5c0.3,0,0.6,0.1,0.8,0.3c0.1,0.1,0.3,0.2,0.4,0.4c0,0.1-0.1,0.3-0.1,0.4c-0.2,0.2-0.4,0.2-0.7,0.2
					c0,0.2,0,0.4-0.2,0.4c0-0.1-0.1-0.2-0.1-0.4c-0.6,0.1-1,0.4-1.5,0.8c1.2,0,2.4,0,3.7,0c0.1,0,0.2,0,0.2,0
					c-0.1,0.3-0.4,0.5-0.7,0.6c-0.6,0.1-1.2,0.3-1.7,0.4C10,14,9.5,14.1,9.2,14.3c-0.1,0.1-0.3,0.2-0.4,0.3c0.3,0.1,0.6,0.2,0.9,0.2
					c0.1,0,0.2,0,0.3,0.2c0,0.2,0,0.4-0.1,0.5c-0.2,0-0.4,0-0.6,0c-0.5-0.1-1-0.4-1.4-0.9c-0.2-0.3-0.3-0.8-0.4-1.2
					C7.4,13.7,7.2,14,7,14.2c-0.5,0.5-1.1,0.9-1.8,1.2c-0.2,0.1-0.5,0.1-0.7,0c-0.2-0.1-0.2-0.3-0.3-0.5c-0.6,0.3-1.2,0.6-1.9,0.8
					c-0.4,0.1-0.8,0.1-1.3,0.1c0.2-0.1,0.4-0.2,0.7-0.3c0.7-0.3,1.5-0.7,2.2-1.1c0.1-0.1,0.2-0.1,0.3-0.2c0.1-0.2,0.1-0.4,0.2-0.6
					c0.1-0.2,0.3-0.4,0.5-0.5c-0.1,0.3-0.3,0.6-0.3,0.9c0.4-0.3,0.8-0.6,1.2-1c0.1-0.1,0.2-0.2,0.2-0.4c-0.1-0.2-0.2-0.4-0.3-0.6
					c-0.1-0.3-0.3-0.7-0.2-1c0-0.1,0.1-0.2,0.1-0.3c0.3,0.2,0.5,0.5,0.6,0.8c-0.1,0-0.1,0-0.2,0c0.1,0.3,0.3,0.6,0.4,1
					c0,0.3,0,0.6-0.2,0.8c-0.5,0.5-1,0.9-1.5,1.3c0.1,0.1,0.2,0.1,0.3,0.1c0.2,0,0.4-0.1,0.6-0.2c0.7-0.3,1.3-0.9,2-1.4
					c-0.2-0.6-0.4-1.2-0.7-1.8C6.6,11.2,6.6,10.9,6.6,10.7L6.6,10.7z M10.1,11.5c0.1,0.1,0.2,0.2,0.3,0.2c0.2,0,0.4-0.1,0.5-0.2
					c-0.2-0.1-0.4-0.2-0.6-0.2C10.2,11.3,10.1,11.4,10.1,11.5L10.1,11.5z"/>
			</g>
			<g id="g4669">
				<path id="path4667" class="st1" d="M-2.6,10.7c0-0.1,0.1-0.2,0.2-0.2c0.2,0,0.4,0.2,0.5,0.3c0.1,0.1,0.1,0.2,0.1,0.3
					c0,0.1-0.2,0.1-0.3,0.1c-0.2,0-0.3,0.2-0.4,0.3C-2.8,11.8-3.2,12-3.6,12c0.1-0.1,0.2-0.2,0.4-0.2c0.3-0.1,0.5-0.3,0.7-0.5
					C-2.5,11-2.6,10.9-2.6,10.7L-2.6,10.7z M-2.4,10.7c0,0.1,0,0.2,0.1,0.3c0-0.1,0.1-0.2,0.1-0.3C-2.3,10.7-2.4,10.7-2.4,10.7z
					 M-2.1,11.1c0.1,0,0.1,0,0.2,0c0-0.1,0-0.2-0.1-0.3C-2.1,10.9-2.1,11-2.1,11.1L-2.1,11.1z"/>
			</g>
			<path id="path4671" class="st1" d="M8.7,10.7c0-0.1,0.1-0.1,0.2-0.1c0,0.2,0.2,0.4,0.2,0.6c0,0.2-0.3,0.4-0.4,0.2
				c-0.1,0-0.1-0.1-0.1-0.1c-0.1,0.1-0.2,0.2-0.3,0.2c-0.2,0-0.3-0.3-0.3-0.5c0-0.1,0.1-0.2,0.2-0.3c0,0.1-0.1,0.3-0.1,0.4
				c0,0.1,0.1,0.1,0.2,0.2c0.1-0.2,0.1-0.3,0.1-0.5c0-0.1,0.1-0.1,0.2-0.2c0,0.1,0,0.3,0,0.4c0,0.1,0.1,0.1,0.2,0.2
				C8.9,11.1,8.8,10.9,8.7,10.7L8.7,10.7z"/>
			<path id="path4673" class="st1" d="M-1.9,11.6c0.1-0.1,0.2-0.1,0.4-0.1c0.1,0,0.2,0.2,0.1,0.3c-0.1,0.1-0.3,0.2-0.5,0.2
				c-0.4,0.2-0.7,0.4-1.1,0.6c-0.1,0.1-0.2,0-0.3,0c0.1-0.1,0.1-0.2,0.2-0.3C-2.7,12-2.3,11.8-1.9,11.6z"/>
			<path id="path4675" class="st1" d="M12.1,11.8c0-0.1,0.2-0.2,0.3-0.2c0,0.2,0,0.4,0.2,0.6c-0.1,0-0.1,0-0.2,0
				c-0.1,0.1-0.2,0.3-0.3,0.3c-0.2,0.1-0.5,0.1-0.7,0.1c0.3-0.1,0.6-0.1,0.7-0.3C12.2,12.1,12.1,11.9,12.1,11.8L12.1,11.8z"/>
			<g id="g4679">
				<path id="path4677" class="st1" d="M17.2,12c0-0.1,0.2-0.1,0.2-0.1c0.2,0,0.3,0.2,0.4,0.3c0.1,0.1,0.1,0.2,0,0.3
					c-0.1,0.1-0.3,0-0.4,0.2c-0.3,0.4-0.8,0.6-1.3,0.6c0.1-0.1,0.2-0.2,0.4-0.2c0.3-0.1,0.5-0.3,0.7-0.5
					C17.2,12.4,17.1,12.2,17.2,12L17.2,12z M17.3,12.1c0,0.1,0,0.2,0.1,0.4c0-0.1,0.1-0.2,0.1-0.3C17.4,12.1,17.3,12.1,17.3,12.1z
					 M17.7,12.2c0,0.1-0.1,0.2-0.1,0.3c0.1,0,0.1,0,0.2,0C17.8,12.4,17.8,12.3,17.7,12.2C17.7,12.2,17.7,12.2,17.7,12.2z"/>
			</g>
			<path id="path4681" class="st1" d="M4.5,12.2c0.1-0.1,0.4-0.1,0.4,0.1c0,0.1,0,0.2-0.1,0.2c-0.1,0-0.1-0.1-0.2-0.1
				c-0.1,0-0.1,0.1-0.1,0.1c-0.1,0.2-0.1,0.4-0.2,0.6c0-0.1-0.1-0.3-0.2-0.4c-0.1-0.1-0.2-0.2-0.3-0.3c-0.1-0.1,0-0.3,0.1-0.2
				c0.2,0,0.2,0.2,0.4,0.3C4.4,12.4,4.5,12.3,4.5,12.2L4.5,12.2z"/>
			<path id="path4683" class="st1" d="M-3.5,13.3c0.1-0.2,0.3-0.4,0.6-0.5C-3,13-3.1,13.1-3.2,13.3c-0.1,0.1-0.1,0.2-0.1,0.4
				c0.2,0,0.3,0,0.5-0.1c0,0.1-0.1,0.3-0.2,0.3c-0.1,0.1-0.3,0.2-0.4,0C-3.6,13.8-3.6,13.5-3.5,13.3L-3.5,13.3z"/>
			<path id="path4685" class="st1" d="M7.2,14.4c0.1,0,0.2-0.1,0.3,0c0.1,0.1,0.1,0.2,0,0.3c-0.1,0.1-0.3,0-0.4,0.1
				c0,0.2,0.1,0.3,0.2,0.5c0,0.1-0.1,0.2-0.1,0.3c0-0.2-0.1-0.3-0.1-0.5C7,15,6.9,14.9,6.9,14.8c0-0.1,0.2-0.2,0.3-0.3
				C7.2,14.5,7.2,14.4,7.2,14.4z"/>
			<path id="path4687" class="st1" d="M12.3,14.6c0.1-0.1,0.2-0.2,0.3-0.3c0,0.1-0.1,0.2-0.1,0.4c0.1,0.1,0.1,0.2,0.2,0.3
				c0,0.2-0.2,0.2-0.3,0.1C12.2,14.9,12.2,14.7,12.3,14.6L12.3,14.6z"/>
			<path id="path4689" class="st1" d="M11.1,14.4c0.2-0.1,0.4,0,0.6,0.1c-0.1,0.3-0.4,0.3-0.6,0.5c0,0,0,0.1,0,0.1
				c0.1,0,0.3,0,0.4-0.1c0.2-0.1,0.3-0.2,0.5-0.2c-0.1,0.1-0.3,0.3-0.4,0.4c-0.2,0.1-0.4,0.1-0.6,0.1c-0.1,0-0.2-0.1-0.2-0.3
				c0.1-0.2,0.2-0.3,0.3-0.4c-0.1,0-0.2,0-0.3,0C10.9,14.5,10.9,14.4,11.1,14.4z"/>
			<path id="path4691" class="st1" d="M15.9,14.9c-0.1-0.1,0-0.2,0.1-0.2c0.2,0,0.3,0.1,0.4,0.3c0.1,0.2,0.1,0.5,0,0.7
				c0-0.2,0-0.3-0.1-0.5C16.2,15,16,15,15.9,14.9L15.9,14.9z"/>
			<path id="path4693" class="st1" d="M18.9,15c0.2-0.1,0.5-0.2,0.8-0.2c-0.1,0.1-0.1,0.2-0.2,0.2c-0.4,0.2-0.8,0.3-1.2,0.5
				c-0.1,0.1-0.3,0.1-0.4,0.1c0,0,0-0.1,0-0.1C18.1,15.3,18.5,15.1,18.9,15L18.9,15z"/>
		</g>
		<path id="path4697" class="st1" d="M574.2-8431.2H537v-3.5c1.7-1.5,4-3.4,4-4.6c0-2-4.7-6-5.8-6c-1.2,0-5.8,4.1-5.8,6
			c0,1.2,2,3,3.7,4.5l0.1,0.1v3.6H240.2c10.4,10.4,25.9,10.3,56.9,10.6c27.7,0.4,27.6,0.4,236,0v3.7c-1.7,1.5-3.7,3.4-3.7,4.6
			c0,2,4.4,6,5.8,6c0.8,0,3.6-2.3,5-4.2h12.8c0.8,1.5,2.8,2.3,5,2.3s4.2-0.9,5-2.3h15.3c1.9,2.2,4.6,2.3,6.1,2.3
			c5.9-0.2,7.2-3.2,7.2-13.6C591.7-8430.5,585.8-8431.4,574.2-8431.2L574.2-8431.2z M576.8-8413.7h-13.7c-0.8-1.5-2.8-2.4-5-2.4
			s-4.2,0.9-5,2.4h-12.6c-0.7-1-2.2-2.4-3.4-3.2v-3.7h39.2h0.6C576.2-8418,576.1-8415.6,576.8-8413.7z"/>
	</g>
</g>
</svg>
