<svg xmlns="http://www.w3.org/2000/svg" width="53.333" height="40" viewBox="0 0 53.333 40"><defs><style>.a{fill:#006;}.b,.d{fill:#fff;}.c{fill:#c00;}.d{fill-rule:evenodd;}</style></defs><path class="a" d="M0,0H53.333V40H0Z"/><path class="b" d="M0,0V2.329l25.586,18.5h3.221V18.5L3.221,0ZM28.807,0V2.329L3.221,20.833H0V18.5L25.586,0Z"/><path class="b" d="M12,0V20.833h4.8V0H12ZM0,6.944v6.944H28.807V6.944Z"/><path class="c" d="M0,8.333V12.5H28.807V8.333ZM12.963,0V20.833h2.881V0H12.963ZM0,20.833l9.6-6.944h2.147l-9.6,6.944ZM0,0,9.6,6.944H7.455L0,1.553ZM17.058,6.944,26.66,0h2.147L19.2,6.944Zm11.75,13.889-9.6-6.944h2.147l7.455,5.392v1.553Z"/><g transform="translate(13.676 10.266)"><path class="d" d="M175.414,145.641l-3.638.316.5,3.617-2.516-2.647-2.516,2.647.5-3.617-3.638-.316,3.14-1.864-2.02-3.041,3.414,1.293,1.118-3.476,1.118,3.476,3.414-1.293-2.02,3.041m18.7,5.2-.878-1.321,1.484.562.485-1.51.485,1.51,1.484-.562-.878,1.321,1.364.81-1.58.138.218,1.571-1.093-1.149-1.093,1.149.218-1.571-1.58-.137m1.364-24.318-.878-1.321,1.484.562.485-1.51.485,1.51,1.484-.562-.878,1.321,1.364.81-1.58.138.218,1.571-1.093-1.149-1.093,1.149.218-1.571-1.58-.137m-7.451,8.74-.878-1.321,1.484.562.485-1.51.485,1.51,1.484-.562-.878,1.321,1.364.81-1.58.137.218,1.571-1.093-1.15-1.093,1.15.218-1.571-1.58-.137m18.018-3.161-.88-1.321,1.485.562.482-1.51.488,1.51,1.481-.562L201,132.666l1.364.81-1.581.138.217,1.571-1.093-1.149-1.093,1.149.217-1.571-1.578-.138m-1.854,6.116-.864.535.243-.987-.776-.655,1.014-.075.384-.941.384.941,1.014.075-.776.655.243.987" transform="translate(-164.11 -123.197)"/></g></svg>