<svg xmlns="http://www.w3.org/2000/svg" width="53.333" height="40" viewBox="0 0 53.333 40"><defs><style>.a{fill:#3f9c35;}.b{fill:#ed2939;}.c{fill:#00b9e4;}.d{fill:#fff;}</style></defs><path class="a" d="M.1,0H53.433V40H.1Z" transform="translate(-0.1)"/><path class="b" d="M.1,0H53.433V26.667H.1Z" transform="translate(-0.1)"/><path class="c" d="M.1,0H53.433V13.333H.1Z" transform="translate(-0.1)"/><circle class="d" cx="6" cy="6" r="6" transform="translate(19.325 14)"/><circle class="b" cx="5" cy="5" r="5" transform="translate(21.658 15)"/><path class="d" d="M347.333,200l.638,1.794,1.719-.817-.817,1.719,1.794.638-1.794.638.817,1.719-1.719-.817-.638,1.794-.638-1.794-1.719.817.817-1.719L344,203.333l1.793-.638-.817-1.719,1.719.817Z" transform="translate(-315.342 -183.333)"/></svg>