<svg xmlns="http://www.w3.org/2000/svg" width="53.333" height="40" viewBox="0 0 53.333 40"><defs><style>.a{fill:#229e45;}.a,.b,.c,.d,.e{fill-rule:evenodd;}.b{fill:#f8e509;}.c{fill:#2b49a3;}.d{fill:#ffffef;}.e,.h{fill:#fff;}.f{fill:#309e3a;}.g{fill:#f7ffff;}</style></defs><path class="a" d="M0,0H53.333V40H0Z"/><path class="b" d="M42.468,76.721,67.592,60.415,42.316,44.065,17.11,60.454,42.468,76.721Z" transform="translate(-15.684 -40.393)"/><path class="c" d="M218.939,123.277a10.629,10.629,0,1,1-10.629-10.612,10.62,10.62,0,0,1,10.629,10.612Z" transform="translate(-181.208 -103.276)"/><path class="d" d="M218.307,205.03l-.329-.189-.341.169.076-.379-.264-.278.377-.044.177-.34.158.352.372.067-.279.261m7.175,2.185-.328-.189-.341.169.076-.379-.263-.278.377-.044.177-.34.158.352.372.068-.279.261m-3.018-2.5-.284-.164-.295.146.066-.327-.227-.24.325-.038.153-.294.136.3.321.058-.241.225m7.239-.706-.279-.161-.289.143.065-.322-.223-.236.319-.037.15-.288.134.3.315.057-.236.221m-7.279-1.833-.328-.189-.341.169.076-.379-.264-.278.377-.044.177-.34.158.352.372.068-.279.261m-8.718-2.911-.328-.19-.341.169.076-.379-.263-.278.377-.044.177-.34.158.352.372.068-.279.261m1.107,4.762-.328-.19-.341.169.076-.379-.263-.278.377-.044.177-.34.158.352.372.068-.279.261m11-5.611-.29-.167-.3.149.068-.335-.233-.245.333-.039.156-.3.139.311.328.06-.246.23m-.555,3.187-.228-.132-.237.117.053-.264-.183-.193.262-.031.123-.237.11.245.259.047-.194.182m-11.85,4.2-.219-.126-.228.113.051-.253-.176-.185.252-.029.118-.227.105.235.248.045-.186.174m16.678,1.264-.179-.095-.186.084.042-.189-.143-.139.2-.022.1-.17.086.176.2.034-.152.13" transform="translate(-194.699 -178.674)"/><path class="d" d="M212.971,279.807l-.219-.126-.228.113.051-.253-.176-.185.252-.029.118-.227.105.235.248.045-.186.174" transform="translate(-194.699 -255.84)"/><path class="d" d="M212.971,243.835l-.219-.126-.228.113.051-.253-.176-.185.252-.029.118-.227.105.235.248.045-.186.174m3.525.254-.219-.127-.228.113.051-.253-.176-.185.252-.029.118-.227.105.235.248.045-.186.174m-.4,1.416-.219-.127-.228.113.051-.253-.176-.185.251-.03.118-.227.105.235.248.045-.186.174m7.282-1.858-.219-.127-.228.113.051-.253-.176-.185.251-.029.118-.227.105.235.248.045-.186.174m-2.092.254-.219-.126-.228.113.051-.253-.176-.185.251-.029.118-.227.105.235.248.045-.186.174m-5.733-.487-.137-.079-.143.071.032-.159-.11-.116.158-.018.074-.142.066.147.155.028-.117.109m13.987,3.782-.219-.127-.228.113.051-.253-.176-.186.251-.03.118-.227.105.235.248.045-.186.174m-1.736.487-.182-.105-.189.094.042-.21-.146-.154.208-.025.1-.188.087.2.205.038-.154.145m.864.191-.169-.1-.176.087.039-.2-.136-.143.194-.023.091-.175.081.181.191.035-.144.135m2.426-1.9-.163-.094-.169.084.038-.188-.131-.138.187-.022.088-.169.078.174.184.034-.138.129m-3.229,3.485-.213-.116-.221.1.049-.232-.171-.17.244-.027.115-.208.1.215.241.041-.181.16m.046,1.187-.194-.116-.2.1.045-.232-.156-.17.223-.027.1-.208.093.215.22.041-.165.16m-1.577-1.921-.163-.094-.169.084.038-.188-.131-.138.187-.022.088-.169.078.174.184.033-.138.13m-1.482.189-.163-.094-.169.084.038-.188-.131-.138.187-.022.088-.169.078.174.184.033-.138.13m-2.534-2.049-.163-.094-.169.084.038-.188-.131-.138.187-.022.088-.169.078.174.184.033-.138.129m.311,4.752-.138-.08-.143.071.032-.159-.111-.117.158-.019.074-.143.066.148.156.028-.117.11m-3.844-7.219-.328-.189-.341.169.076-.379-.264-.278.377-.044.177-.34.158.352.372.067-.279.261" transform="translate(-194.699 -219.868)"/><path class="e" d="M223.115,190.2a10.384,10.384,0,0,0,.482-1.649c-5.645-4.959-11.938-7.5-19.89-6.977a10.378,10.378,0,0,0-.706,1.738,25.439,25.439,0,0,1,20.114,6.888Z" transform="translate(-186.084 -166.378)"/><path class="f" d="M275.748,191.576l.2.11a.284.284,0,0,0-.026.188.255.255,0,0,0,.111.141.259.259,0,0,0,.168.057.144.144,0,0,0,.111-.061.106.106,0,0,0,.019-.072.192.192,0,0,0-.041-.09q-.026-.035-.128-.148a.641.641,0,0,1-.155-.245.3.3,0,0,1,.042-.255.3.3,0,0,1,.134-.11.315.315,0,0,1,.187-.016.58.58,0,0,1,.213.1.491.491,0,0,1,.219.265.341.341,0,0,1-.047.279l-.2-.124a.2.2,0,0,0,.018-.144.233.233,0,0,0-.1-.116.267.267,0,0,0-.156-.055.084.084,0,0,0-.071.039.091.091,0,0,0-.011.079.62.62,0,0,0,.135.186,1.123,1.123,0,0,1,.162.212.321.321,0,0,1,.04.171.365.365,0,0,1-.216.3.334.334,0,0,1-.2.02.663.663,0,0,1-.233-.107.507.507,0,0,1-.224-.275.449.449,0,0,1,.05-.327Zm-.956-.628.206.1a.283.283,0,0,0-.018.188.257.257,0,0,0,.117.136.26.26,0,0,0,.17.05.143.143,0,0,0,.109-.066.1.1,0,0,0,.016-.072.189.189,0,0,0-.045-.088c-.018-.023-.062-.07-.133-.143a.64.64,0,0,1-.165-.238.306.306,0,0,1,.032-.256.3.3,0,0,1,.13-.115.317.317,0,0,1,.186-.024.583.583,0,0,1,.216.087.49.49,0,0,1,.229.256.341.341,0,0,1-.036.28l-.205-.115a.2.2,0,0,0,.013-.144.234.234,0,0,0-.105-.113.268.268,0,0,0-.158-.049.084.084,0,0,0-.07.042.09.09,0,0,0-.008.079.619.619,0,0,0,.142.181,1.118,1.118,0,0,1,.171.205.321.321,0,0,1,.047.169.365.365,0,0,1-.2.313.334.334,0,0,1-.2.028.665.665,0,0,1-.237-.1.508.508,0,0,1-.235-.266.447.447,0,0,1,.036-.329Zm-1.184-.317.606-1,.736.451-.1.169-.536-.329-.135.221.5.306-.1.168-.5-.306-.165.271.555.34-.1.168-.755-.463Zm-1.724-1.416.09-.175.45.233-.212.413a.64.64,0,0,1-.249.014.78.78,0,0,1-.276-.082.64.64,0,0,1-.248-.214.492.492,0,0,1-.081-.289.718.718,0,0,1,.081-.309.671.671,0,0,1,.216-.253.513.513,0,0,1,.3-.091.6.6,0,0,1,.274.076.553.553,0,0,1,.259.237.41.41,0,0,1,.025.3l-.227-.068a.244.244,0,0,0-.021-.163.277.277,0,0,0-.127-.123.318.318,0,0,0-.263-.025.412.412,0,0,0-.213.217.46.46,0,0,0-.061.32.31.31,0,0,0,.167.2.405.405,0,0,0,.144.042.507.507,0,0,0,.146,0l.068-.132-.239-.124Zm-7.52-1.865.169-1.156.348.052.094.819.322-.758.349.051-.169,1.156-.216-.032.133-.91-.362.876-.224-.033-.094-.943-.133.91-.216-.032Zm-1.176-.136.109-1.163.859.081-.018.2-.625-.059-.024.258.582.055-.018.2-.582-.055-.029.317.647.061-.018.2-.881-.083Z" transform="translate(-241.255 -170.546)"/><g transform="translate(18.041 15.344)"><path class="f" d="M216.5,184.723a.748.748,0,0,1,.061-.3.554.554,0,0,1,.112-.157.45.45,0,0,1,.154-.1.636.636,0,0,1,.252-.04.545.545,0,0,1,.406.171.718.718,0,0,1-.022.888.541.541,0,0,1-.414.148.547.547,0,0,1-.408-.17.606.606,0,0,1-.141-.442Z" transform="translate(-216.497 -184.127)"/><path class="g" d="M219.411,186.931a.441.441,0,0,0,.083.3.313.313,0,0,0,.462.014.449.449,0,0,0,.1-.3.439.439,0,0,0-.08-.3.3.3,0,0,0-.23-.105.3.3,0,0,0-.237.094A.44.44,0,0,0,219.411,186.931Z" transform="translate(-219.168 -186.337)"/></g><g transform="translate(19.421 15.374)"><path class="f" d="M233.052,185.661l.014-1.168.494.006a.83.83,0,0,1,.27.035.265.265,0,0,1,.134.113.338.338,0,0,1,.049.185.314.314,0,0,1-.08.216.371.371,0,0,1-.231.105.529.529,0,0,1,.124.1,1.288,1.288,0,0,1,.132.191l.139.23-.281,0-.167-.256a1.611,1.611,0,0,0-.122-.173.176.176,0,0,0-.07-.049.38.38,0,0,0-.118-.015h-.048l-.006.488-.235,0Z" transform="translate(-233.052 -184.493)"/><path class="h" d="M235.976,187.194l.174,0a.889.889,0,0,0,.211-.012.127.127,0,0,0,.066-.049.154.154,0,0,0,.025-.087.138.138,0,0,0-.031-.1.14.14,0,0,0-.087-.047c-.019,0-.076-.005-.171-.006l-.183,0,0,.3Z" transform="translate(-235.732 -186.698)"/></g><g transform="translate(20.691 15.432)"><path class="f" d="M248.356,185.187l.429.022a.835.835,0,0,1,.22.034.39.39,0,0,1,.17.116.509.509,0,0,1,.1.195.86.86,0,0,1,.024.277.771.771,0,0,1-.048.247.515.515,0,0,1-.135.2.411.411,0,0,1-.17.085.711.711,0,0,1-.209.014l-.441-.023.059-1.167Z" transform="translate(-248.297 -185.187)"/><path class="h" d="M251.277,187.684l-.039.773.175.009a.63.63,0,0,0,.143,0,.215.215,0,0,0,.1-.044.243.243,0,0,0,.068-.109.768.768,0,0,0,.035-.213.7.7,0,0,0-.013-.209.268.268,0,0,0-.061-.116.224.224,0,0,0-.106-.06,1.049,1.049,0,0,0-.192-.021l-.105-.006Z" transform="translate(-250.993 -187.476)"/></g><g transform="translate(26.469 16.382)"><path class="f" d="M317.629,197.726l.272-1.136.367.088a1.366,1.366,0,0,1,.267.083.305.305,0,0,1,.136.151.364.364,0,0,1,.013.237.38.38,0,0,1-.08.167.319.319,0,0,1-.123.089.338.338,0,0,1-.131.025,1.334,1.334,0,0,1-.241-.041l-.149-.036-.1.429-.229-.055Z" transform="translate(-317.629 -196.59)"/><path class="h" d="M322.237,199.552l-.077.322.125.03a.6.6,0,0,0,.185.026.152.152,0,0,0,.084-.039.154.154,0,0,0,.047-.082.15.15,0,0,0-.012-.111.162.162,0,0,0-.08-.072,1.082,1.082,0,0,0-.162-.047l-.11-.027Z" transform="translate(-321.782 -199.305)"/></g><g transform="translate(27.55 16.74)"><path class="f" d="M330.606,201.988l.387-1.1.467.165a.831.831,0,0,1,.245.12.266.266,0,0,1,.091.151.337.337,0,0,1-.013.191.313.313,0,0,1-.145.179.37.37,0,0,1-.253.025.536.536,0,0,1,.086.134,1.3,1.3,0,0,1,.064.224l.059.262-.265-.094-.076-.3a1.626,1.626,0,0,0-.06-.2.178.178,0,0,0-.051-.07.377.377,0,0,0-.107-.052l-.045-.016-.162.46-.222-.079Z" transform="translate(-330.606 -200.886)"/><path class="h" d="M335.937,204.351l.164.058a.889.889,0,0,0,.2.057.126.126,0,0,0,.079-.025.151.151,0,0,0,.051-.075.138.138,0,0,0,0-.1.141.141,0,0,0-.068-.073q-.026-.013-.16-.061l-.173-.061-.1.28Z" transform="translate(-335.493 -203.806)"/></g><g transform="translate(28.88 17.351)"><path class="f" d="M346.6,208.664a.746.746,0,0,1,.139-.27.549.549,0,0,1,.151-.121.457.457,0,0,1,.175-.055.636.636,0,0,1,.253.031.545.545,0,0,1,.345.276.717.717,0,0,1-.262.849.541.541,0,0,1-.438.03.549.549,0,0,1-.347-.275.606.606,0,0,1-.016-.464Z" transform="translate(-346.559 -208.215)"/><path class="h" d="M349.5,211.044a.441.441,0,0,0,0,.315.3.3,0,0,0,.191.167.293.293,0,0,0,.25-.028.447.447,0,0,0,.177-.264.44.44,0,0,0,0-.312.323.323,0,0,0-.446-.138.44.44,0,0,0-.174.261Z" transform="translate(-349.224 -210.53)"/></g><g transform="translate(31.192 18.389)"><path class="f" d="M374.3,221.707l.535-1.037.439.228a.828.828,0,0,1,.226.153.266.266,0,0,1,.07.162.338.338,0,0,1-.039.187.312.312,0,0,1-.168.158.369.369,0,0,1-.254-.011.548.548,0,0,1,.067.145,1.33,1.33,0,0,1,.032.23l.022.268-.249-.13-.035-.3a1.621,1.621,0,0,0-.031-.209.177.177,0,0,0-.041-.076.374.374,0,0,0-.1-.067l-.042-.022-.223.433-.209-.108Z" transform="translate(-374.305 -220.67)"/><path class="h" d="M380.5,224.33l.154.08a.89.89,0,0,0,.194.085.125.125,0,0,0,.081-.014.151.151,0,0,0,.061-.067.139.139,0,0,0,.015-.1.142.142,0,0,0-.057-.082c-.016-.011-.066-.039-.151-.083l-.163-.084-.136.263Z" transform="translate(-379.985 -223.784)"/></g><g transform="translate(35.384 21.258)"><path class="f" d="M424.728,255.4a.741.741,0,0,1,.211-.218.55.55,0,0,1,.179-.072.454.454,0,0,1,.183,0,.639.639,0,0,1,.234.1.547.547,0,0,1,.251.364.716.716,0,0,1-.495.737.542.542,0,0,1-.428-.1.551.551,0,0,1-.253-.364.606.606,0,0,1,.118-.449Z" transform="translate(-424.603 -255.095)"/><path class="h" d="M427.531,257.954a.442.442,0,0,0-.093.3.3.3,0,0,0,.135.215.294.294,0,0,0,.247.046.446.446,0,0,0,.245-.2.439.439,0,0,0,.094-.3.324.324,0,0,0-.387-.261.439.439,0,0,0-.242.2Z" transform="translate(-427.2 -257.524)"/></g><path class="f" d="M301.824,195.5l.187-.82.606.14-.031.139-.441-.1-.042.182.41.095-.032.138-.41-.094-.051.223.456.105-.032.138-.621-.143Z" transform="translate(-276.672 -178.459)"/></svg>