<svg xmlns="http://www.w3.org/2000/svg" width="60.001" height="37.701" viewBox="0 0 60.001 37.701"><defs><style>.a{fill:#f4f4f4;}.b{fill:#818281;}.c{fill:#f79f1a;}.d{fill:#ea001b;}.e{fill:#ff5f01;}</style></defs><g transform="translate(0 0)"><path class="a" d="M3.2,37.5a3,3,0,0,1-3-3V3.2a3,3,0,0,1,3-3H56.8a3,3,0,0,1,3,3V34.5a3,3,0,0,1-3,3Z"/><path class="b" d="M56.8.4a2.86,2.86,0,0,1,2.8,2.8V34.5a2.86,2.86,0,0,1-2.8,2.8H3.2A2.86,2.86,0,0,1,.4,34.5V3.2A2.86,2.86,0,0,1,3.2.4H56.8m0-.4H3.2A3.16,3.16,0,0,0,0,3.2V34.5a3.16,3.16,0,0,0,3.2,3.2H56.8A3.16,3.16,0,0,0,60,34.5V3.2A3.16,3.16,0,0,0,56.8,0Z"/><path d="M49.46,33.81c-.1,0-.2,0-.2.1s-.1.1-.1.2,0,.2.1.2.1.1.2.1.2,0,.2-.1.1-.1.1-.2,0-.2-.1-.2S49.56,33.81,49.46,33.81Zm0,.5c-.1,0-.1,0-.2-.1a.35.35,0,0,1-.1-.2c0-.1,0-.1.1-.2a.35.35,0,0,1,.2-.1c.1,0,.1,0,.2.1a.35.35,0,0,1,.1.2c0,.1,0,.1-.1.2S49.56,34.31,49.46,34.31Zm0-.4h0l-.1.3h.1v-.1h0l.1.1h.1l-.1-.1h.1V34l-.2-.1Zm0,.1h0C49.56,34.01,49.56,34.11,49.46,34.01Z"/><path d="M12.86,34.21h-.7v-3.3h.7v.4a2.23,2.23,0,0,1,1-.5,1.43,1.43,0,0,1,1.1.6,1.23,1.23,0,0,1,1.1-.6,1.29,1.29,0,0,1,1.3,1v2.3h-.7v-2a.62.62,0,0,0-.7-.6c-.8,0-.8.6-.8.6v2h-.7v-2a.76.76,0,0,0-1.5.1l-.1,2Z"/><path d="M34.16,30.91a2.23,2.23,0,0,0-1,.5V31h-.7v3.3h.7v-2a.72.72,0,0,1,.8-.7c.2,0,.3,0,.4.1h0l.2-.6a.4.4,0,0,0-.4-.2Z"/><path d="M44,30.91a2.23,2.23,0,0,0-1,.5V31h-.7v3.3H43v-2a.72.72,0,0,1,.8-.7c.2,0,.3,0,.4.1h0l.2-.6c0-.2-.2-.2-.4-.2Z"/><path d="M19.56,30.81a1.7,1.7,0,1,0,0,3.4,2,2,0,0,0,1.1-.4v.3h.7v-3.3h-.7v.4c0,.2-.5-.4-1.1-.4Zm.1.7a1,1,0,0,1,1,1.1,1.051,1.051,0,1,1-1-1.1Z"/><path d="M39.66,30.81a1.7,1.7,0,1,0,0,3.4,2,2,0,0,0,1.1-.4v.3h.7v-3.3h-.7v.4c0,.2-.5-.4-1.1-.4Zm.1.7a1,1,0,0,1,1,1.1,1.051,1.051,0,1,1-1-1.1Z"/><path d="M46.26,30.81a1.7,1.7,0,1,0,0,3.4,2,2,0,0,0,1.1-.4v.3h.7v-4.6h-.7v1.7c0,.2-.5-.4-1.1-.4Zm.1.7a1,1,0,0,1,1,1.1,1.1,1.1,0,0,1-1,1.1,1,1,0,0,1-1-1.1A1.1,1.1,0,0,1,46.36,31.51Z"/><path d="M23.46,34.31a3.28,3.28,0,0,1-1.4-.4l.3-.5a3,3,0,0,0,1.1.3c.3,0,.8-.1.8-.4s-.8-.4-.8-.4-1.2,0-1.2-1c0-.6.6-1,1.4-1a3.93,3.93,0,0,1,1.3.4l-.3.5a4.05,4.05,0,0,0-1-.3c-.3,0-.6.1-.6.4,0,.7,2-.1,2,1.3-.1,1-1,1.1-1.6,1.1Z"/><path d="M26.06,30v1h-.6v.7h.6v1.6a1,1,0,0,0,1.1,1.1,5.63,5.63,0,0,0,1-.2l-.3-.7a1.23,1.23,0,0,1-.5.2c-.6,0-.5-.4-.5-.4V31.7H28V31H26.9V30Z"/><path d="M30.16,30.91a1.68,1.68,0,0,0-1.7,1.7,1.7,1.7,0,0,0,1.7,1.8,3.41,3.41,0,0,0,1.3-.5l-.3-.6a1.91,1.91,0,0,1-1,.4,1,1,0,0,1-1-.9h2.4a1.46,1.46,0,0,0-1.4-1.9Zm-.1.6h0a.82.82,0,0,1,.9.8h-1.7c.1,0,0-.7.8-.8Z"/><path d="M37.26,33.31l.3.6a2.39,2.39,0,0,1-1.1.3,1.71,1.71,0,0,1-1.8-1.7,1.61,1.61,0,0,1,1.7-1.7,2.54,2.54,0,0,1,1.2.4l-.4.6s-.2-.3-.9-.3a1.11,1.11,0,0,0,0,2.2,1.26,1.26,0,0,0,1-.4Z"/><path class="c" d="M49.92,22.25v-.4h-.1l-.1.3-.1-.3h-.1v.4h.1V22l.1.3h.2Zm-.7,0v-.4h-.3V22H49l.2.3Z"/><path class="c" d="M50,15.75A12.3,12.3,0,1,1,37.7,3.35,12.3,12.3,0,0,1,50,15.75Z"/><path class="d" d="M34.72,15.75a12.3,12.3,0,1,1-12.3-12.4,12.3,12.3,0,0,1,12.3,12.4Z"/><path class="e" d="M30,6a12.33,12.33,0,0,0-4.7,9.7A12.18,12.18,0,0,0,30,25.4,12.36,12.36,0,0,0,30,6Z"/></g></svg>