<svg xmlns="http://www.w3.org/2000/svg" xmlns:xlink="http://www.w3.org/1999/xlink" width="53.659" height="40" viewBox="0 0 53.659 40"><defs><style>.a{fill:rgba(0,0,0,0.67);}.b{clip-path:url(#a);}.c,.e{fill:#fff;}.d{fill:#df0000;}.e{fill-rule:evenodd;}</style><clipPath id="a"><rect class="a" width="53.659" height="40" transform="translate(0.057)"/></clipPath></defs><g class="b" transform="translate(-0.057)"><g transform="translate(-1.894 0)"><rect class="c" width="61.463" height="40" transform="translate(0)"/><rect class="d" width="61.463" height="20.488" transform="translate(0)"/><path class="e" d="M47.347,37.158a7.107,7.107,0,0,0,.064,13.909,7.233,7.233,0,1,1-4-13.9,6.917,6.917,0,0,1,3.938-.008Z" transform="translate(-32.881 -33.744)"/><path class="e" d="M299.269,626.349l.412,1.273h0l-1.089-.777-1.084.785.4-1.275-1.081-.788,1.337-.012.415-1.272.424,1.269,1.338,0Z" transform="translate(-285.903 -617.065)"/><path class="e" d="M299.269,626.349l.412,1.273h0l-1.089-.777-1.084.785.4-1.275-1.081-.788,1.337-.012.415-1.272.424,1.269,1.338,0Z" transform="translate(-284.424 -612.682)"/><path class="e" d="M299.269,626.349l.412,1.273h0l-1.089-.777-1.084.785.4-1.275-1.081-.788,1.337-.012.415-1.272.424,1.269,1.338,0Z" transform="translate(-279.505 -612.714)"/><path class="e" d="M299.269,626.349l.412,1.273h0l-1.089-.777-1.084.785.4-1.275-1.081-.788,1.337-.012.415-1.272.424,1.269,1.338,0Z" transform="translate(-278.038 -617.061)"/><path class="e" d="M299.269,626.349l.412,1.273h0l-1.089-.777-1.084.785.4-1.275-1.081-.788,1.337-.012.415-1.272.424,1.269,1.338,0Z" transform="translate(-281.932 -619.946)"/></g></g></svg>