<svg xmlns="http://www.w3.org/2000/svg" width="60.001" height="37.701" viewBox="0 0 60.001 37.701"><defs><style>.a{fill:#eb6f93;}.b{fill:#fff;}</style></defs><g transform="translate(0 0)"><path class="a" d="M3.2,37.5a3,3,0,0,1-3-3V3.2a3,3,0,0,1,3-3H56.8a3,3,0,0,1,3,3V34.5a3,3,0,0,1-3,3Z"/><path class="a" d="M56.8.4a2.86,2.86,0,0,1,2.8,2.8V34.5a2.86,2.86,0,0,1-2.8,2.8H3.2A2.86,2.86,0,0,1,.4,34.5V3.2A2.86,2.86,0,0,1,3.2.4H56.8m0-.4H3.2A3.16,3.16,0,0,0,0,3.2V34.5a3.16,3.16,0,0,0,3.2,3.2H56.8A3.16,3.16,0,0,0,60,34.5V3.2A3.16,3.16,0,0,0,56.8,0Z"/><path class="b" d="M18.57,34.54a2.13,2.13,0,0,0,2.28-2v-.16c0-1.18-.84-1.69-1.9-1.9-.65-.19-1.07-.33-1.07-.8a.69.69,0,0,1,.69-.69h0a1,1,0,0,1,.86.55l1.07-.66a2.13,2.13,0,0,0-4,.87c0,.86.51,1.53,1.79,1.91.68.19,1.12.32,1.12.87a.82.82,0,0,1-.79.85H18.5a1.72,1.72,0,0,1-1.28-.7l-.89.89a2.64,2.64,0,0,0,2.24.97Zm5.21,0a2.42,2.42,0,1,1,2.48-2.42,2.45,2.45,0,0,1-2.44,2.42Zm0-1.22a1.19,1.19,0,1,0-1.18-1.18h0a1.18,1.18,0,0,0,1.16,1.2h0ZM29.5,29V27.76h-.19a2.17,2.17,0,0,0-2.34,2v4.66h1.3v-1.9A1.12,1.12,0,0,1,29.4,31.4h.06V30.16a1.58,1.58,0,0,0-1.2.46v-.5a1.06,1.06,0,0,1,1-1.15,1.22,1.22,0,0,1,.24.03Zm2.81,5.56a2.42,2.42,0,1,1,2.48-2.42,2.46,2.46,0,0,1-2.48,2.4Zm0-1.22a1.19,1.19,0,1,0-1.18-1.18h0a1.18,1.18,0,0,0,1.17,1.2Zm4.44-3v-.51H35.49v4.59h1.3v-2.1a1.11,1.11,0,0,1,1-1.18H38v-1.4a1.33,1.33,0,0,0-1.25.59ZM40,32.07V31a1.59,1.59,0,0,0,1.2.46V30.22a1.13,1.13,0,0,1-1.19-1.08v-.8H38.75v3.8a2.17,2.17,0,0,0,2,2.29h.48V33.21a1.06,1.06,0,0,1-1.22-.88A1.1,1.1,0,0,1,40,32.07Zm2.78,2.42a.86.86,0,1,0-.85-.86.88.88,0,0,0,.89.86Z"/><path class="b" d="M27.93,18.24a1.022,1.022,0,1,1-1.44,1.45L24.2,17.42a1.42,1.42,0,0,1-.32-1.9.94.94,0,0,1,1.24,0,.42.42,0,0,0,.62-.56.48.48,0,0,0-.11-.09,1.75,1.75,0,0,0-2.34.16,2.11,2.11,0,0,0,.32,3l2.29,2.26a1.84,1.84,0,1,0,2.61-2.59.42.42,0,0,0-.59-.1.41.41,0,0,0-.1.58.57.57,0,0,0,.11.11Z"/><path class="b" d="M26.58,6l.94,7.62a.41.41,0,0,0,.81-.1L27.4,5.9a1.22,1.22,0,0,1,.69-1.56,1.13,1.13,0,0,1,1.34.85h0l1.62,6.93a.43.43,0,0,0,.52.31A.44.44,0,0,0,31.9,12L30.28,5a1.91,1.91,0,0,0-2.21-1.55h-.12A2,2,0,0,0,26.58,6Z"/><path class="b" d="M35.15,15l1.91-9.2A1.91,1.91,0,0,0,35.7,3.54,2,2,0,0,0,33.23,5l-2.1,7a.42.42,0,0,0,.4.44.43.43,0,0,0,.38-.21l2-7a1.23,1.23,0,0,1,1.49-.84,1.14,1.14,0,0,1,.76,1.32L34.25,14.9a.42.42,0,0,0,.44.4.41.41,0,0,0,.36-.24Z"/><path class="b" d="M30.51,23.86a5.19,5.19,0,0,1-5.37-5v-.18a.43.43,0,0,0-.5-.32.42.42,0,0,0-.32.32,6,6,0,0,0,6,6h.18a.42.42,0,0,0,.17-.82Z"/><path class="b" d="M29.06,16.7a1.012,1.012,0,0,1-1.83.3l-1.79-2.67a1.47,1.47,0,0,1,0-1.9c.61-.35,1.12,0,1.64.68l1.5,2.23a.42.42,0,0,0,.69-.46l-1.51-2.23c-.76-1.07-1.65-1.55-2.76-.9h-.11a2.12,2.12,0,0,0-.27,3l1.79,2.67a1.9,1.9,0,0,0,2.57.49,1.88,1.88,0,0,0,.74-1,.41.41,0,0,0-.34-.48.44.44,0,0,0-.46.25Z"/><path class="b" d="M31.78,18.05a3.07,3.07,0,0,0-1.45,2.73.43.43,0,0,0,.5.32.42.42,0,0,0,.32-.32,2.14,2.14,0,0,1,1.32-2.17,2.81,2.81,0,0,1,1.25-.16h.08a.42.42,0,0,0,.4-.44.43.43,0,0,0-.21-.34L30.83,17c-1.49-.4-1.7-.95-1.43-1.91a.9.9,0,0,1,.72-.68,2,2,0,0,1,.77,0H31l4.78,1.12a.85.85,0,0,1,.25.17,2.72,2.72,0,0,1,.4,2.06c-.31,3.81-2.06,6-6.17,6a.42.42,0,1,0-.18.82h.18c4.62,0,6.64-2.65,7-6.74a3.4,3.4,0,0,0-.62-2.69,1.45,1.45,0,0,0-.79-.46l-4.74-1.1H30.9a2.8,2.8,0,0,0-1.08,0,1.69,1.69,0,0,0-1.33,1.24c-.4,1.31,0,2.34,2,2.89Z"/></g></svg>