<svg xmlns="http://www.w3.org/2000/svg" xmlns:xlink="http://www.w3.org/1999/xlink" width="54.634" height="40" viewBox="0 0 54.634 40"><defs><style>.a{fill:rgba(0,0,0,0.67);}.b{clip-path:url(#a);}.c{fill:#bd3d44;}.d,.f{fill:#fff;}.e{fill:#192f5d;}.f{fill-rule:evenodd;}</style><clipPath id="a"><rect class="a" width="54.634" height="40" transform="translate(0.25)"/></clipPath></defs><g class="b" transform="translate(-0.25)"><g transform="translate(0.563 0.026)"><rect class="c" width="76.789" height="3.109"/><rect class="c" width="76.789" height="3.109" transform="translate(0 6.218)"/><rect class="c" width="76.789" height="3.109" transform="translate(0 12.436)"/><rect class="c" width="76.789" height="3.109" transform="translate(0 18.653)"/><rect class="c" width="76.789" height="3.109" transform="translate(0 24.871)"/><rect class="c" width="76.789" height="3.109" transform="translate(0 31.089)"/><rect class="c" width="76.789" height="3.109" transform="translate(0 37.307)"/><g transform="translate(0 3.109)"><rect class="d" width="76.789" height="3.109"/><rect class="d" width="76.789" height="3.109" transform="translate(0 6.218)"/><rect class="d" width="76.789" height="3.109" transform="translate(0 12.436)"/><rect class="d" width="76.789" height="3.109" transform="translate(0 18.653)"/><rect class="d" width="76.789" height="3.109" transform="translate(0 24.871)"/><rect class="d" width="76.789" height="3.109" transform="translate(0 31.089)"/></g></g><rect class="e" width="30.715" height="21.762" transform="translate(0.563 0.026)"/><g transform="translate(1.939 0.958)"><path class="f" d="M-12.877-14.784l.279.86h.9l-.732.532.279.86-.732-.532-.732.532.279-.86-.732-.532h.9Z" transform="translate(14.06 14.784)"/><path class="f" d="M-12.877-14.784l.279.86h.9l-.732.532.279.86-.732-.532-.732.532.279-.86-.732-.532h.9Z" transform="translate(19.18 14.784)"/><path class="f" d="M-12.877-14.784l.279.86h.9l-.732.532.279.86-.732-.532-.732.532.279-.86-.732-.532h.9Z" transform="translate(24.299 14.784)"/><path class="f" d="M-12.877-14.784l.279.86h.9l-.732.532.279.86-.732-.532-.732.532.279-.86-.732-.532h.9Z" transform="translate(29.418 14.784)"/><path class="f" d="M-12.877-14.784l.279.86h.9l-.732.532.279.86-.732-.532-.732.532.279-.86-.732-.532h.9Z" transform="translate(34.538 14.784)"/><path class="f" d="M-12.877-14.784l.279.86h.9l-.732.532.279.86-.732-.532-.732.532.279-.86-.732-.532h.9Z" transform="translate(39.657 14.784)"/><g transform="translate(2.56 2.176)"><path class="f" d="M-12.877-14.784l.279.86h.9l-.732.532.279.86-.732-.532-.732.532.279-.86-.732-.532h.9Z" transform="translate(14.06 14.784)"/><path class="f" d="M-12.877-14.784l.279.86h.9l-.732.532.279.86-.732-.532-.732.532.279-.86-.732-.532h.9Z" transform="translate(19.18 14.784)"/><path class="f" d="M-12.877-14.784l.279.86h.9l-.732.532.279.86-.732-.532-.732.532.279-.86-.732-.532h.9Z" transform="translate(24.299 14.784)"/><path class="f" d="M-12.877-14.784l.279.86h.9l-.732.532.279.86-.732-.532-.732.532.279-.86-.732-.532h.9Z" transform="translate(29.418 14.784)"/><path class="f" d="M-12.877-14.784l.279.86h.9l-.732.532.279.86-.732-.532-.732.532.279-.86-.732-.532h.9Z" transform="translate(34.537 14.784)"/></g><g transform="translate(0 4.352)"><path class="f" d="M-12.877-14.784l.279.86h.9l-.732.532.279.86-.732-.532-.732.532.279-.86-.732-.532h.9Z" transform="translate(14.06 14.784)"/><path class="f" d="M-12.877-14.784l.279.86h.9l-.732.532.279.86-.732-.532-.732.532.279-.86-.732-.532h.9Z" transform="translate(19.18 14.784)"/><path class="f" d="M-12.877-14.784l.279.86h.9l-.732.532.279.86-.732-.532-.732.532.279-.86-.732-.532h.9Z" transform="translate(24.299 14.784)"/><path class="f" d="M-12.877-14.784l.279.86h.9l-.732.532.279.86-.732-.532-.732.532.279-.86-.732-.532h.9Z" transform="translate(29.418 14.784)"/><path class="f" d="M-12.877-14.784l.279.86h.9l-.732.532.279.86-.732-.532-.732.532.279-.86-.732-.532h.9Z" transform="translate(34.538 14.784)"/><path class="f" d="M-12.877-14.784l.279.86h.9l-.732.532.279.86-.732-.532-.732.532.279-.86-.732-.532h.9Z" transform="translate(39.657 14.784)"/><g transform="translate(2.56 2.176)"><path class="f" d="M-12.877-14.784l.279.86h.9l-.732.532.279.86-.732-.532-.732.532.279-.86-.732-.532h.9Z" transform="translate(14.06 14.784)"/><path class="f" d="M-12.877-14.784l.279.86h.9l-.732.532.279.86-.732-.532-.732.532.279-.86-.732-.532h.9Z" transform="translate(19.18 14.784)"/><path class="f" d="M-12.877-14.784l.279.86h.9l-.732.532.279.86-.732-.532-.732.532.279-.86-.732-.532h.9Z" transform="translate(24.299 14.784)"/><path class="f" d="M-12.877-14.784l.279.86h.9l-.732.532.279.86-.732-.532-.732.532.279-.86-.732-.532h.9Z" transform="translate(29.418 14.784)"/><path class="f" d="M-12.877-14.784l.279.86h.9l-.732.532.279.86-.732-.532-.732.532.279-.86-.732-.532h.9Z" transform="translate(34.537 14.784)"/></g></g><g transform="translate(0 8.705)"><g transform="translate(0 0)"><path class="f" d="M-12.877-14.784l.279.86h.9l-.732.532.279.86-.732-.532-.732.532.279-.86-.732-.532h.9Z" transform="translate(14.06 14.784)"/><path class="f" d="M-12.877-14.784l.279.86h.9l-.732.532.279.86-.732-.532-.732.532.279-.86-.732-.532h.9Z" transform="translate(19.18 14.784)"/><path class="f" d="M-12.877-14.784l.279.86h.9l-.732.532.279.86-.732-.532-.732.532.279-.86-.732-.532h.9Z" transform="translate(24.299 14.784)"/><path class="f" d="M-12.877-14.784l.279.86h.9l-.732.532.279.86-.732-.532-.732.532.279-.86-.732-.532h.9Z" transform="translate(29.418 14.784)"/><path class="f" d="M-12.877-14.784l.279.86h.9l-.732.532.279.86-.732-.532-.732.532.279-.86-.732-.532h.9Z" transform="translate(34.538 14.784)"/><path class="f" d="M-12.877-14.784l.279.86h.9l-.732.532.279.86-.732-.532-.732.532.279-.86-.732-.532h.9Z" transform="translate(39.657 14.784)"/></g><g transform="translate(2.56 2.176)"><path class="f" d="M-12.877-14.784l.279.86h.9l-.732.532.279.86-.732-.532-.732.532.279-.86-.732-.532h.9Z" transform="translate(14.06 14.784)"/><path class="f" d="M-12.877-14.784l.279.86h.9l-.732.532.279.86-.732-.532-.732.532.279-.86-.732-.532h.9Z" transform="translate(19.18 14.784)"/><path class="f" d="M-12.877-14.784l.279.86h.9l-.732.532.279.86-.732-.532-.732.532.279-.86-.732-.532h.9Z" transform="translate(24.299 14.784)"/><path class="f" d="M-12.877-14.784l.279.86h.9l-.732.532.279.86-.732-.532-.732.532.279-.86-.732-.532h.9Z" transform="translate(29.418 14.784)"/><path class="f" d="M-12.877-14.784l.279.86h.9l-.732.532.279.86-.732-.532-.732.532.279-.86-.732-.532h.9Z" transform="translate(34.537 14.784)"/></g></g><g transform="translate(0 13.057)"><g transform="translate(0 0)"><path class="f" d="M-12.877-14.784l.279.86h.9l-.732.532.279.86-.732-.532-.732.532.279-.86-.732-.532h.9Z" transform="translate(14.06 14.784)"/><path class="f" d="M-12.877-14.784l.279.86h.9l-.732.532.279.86-.732-.532-.732.532.279-.86-.732-.532h.9Z" transform="translate(19.18 14.784)"/><path class="f" d="M-12.877-14.784l.279.86h.9l-.732.532.279.86-.732-.532-.732.532.279-.86-.732-.532h.9Z" transform="translate(24.299 14.784)"/><path class="f" d="M-12.877-14.784l.279.86h.9l-.732.532.279.86-.732-.532-.732.532.279-.86-.732-.532h.9Z" transform="translate(29.418 14.784)"/><path class="f" d="M-12.877-14.784l.279.86h.9l-.732.532.279.86-.732-.532-.732.532.279-.86-.732-.532h.9Z" transform="translate(34.538 14.784)"/><path class="f" d="M-12.877-14.784l.279.86h.9l-.732.532.279.86-.732-.532-.732.532.279-.86-.732-.532h.9Z" transform="translate(39.657 14.784)"/></g><g transform="translate(2.56 2.176)"><path class="f" d="M-12.877-14.784l.279.86h.9l-.732.532.279.86-.732-.532-.732.532.279-.86-.732-.532h.9Z" transform="translate(14.06 14.784)"/><path class="f" d="M-12.877-14.784l.279.86h.9l-.732.532.279.86-.732-.532-.732.532.279-.86-.732-.532h.9Z" transform="translate(19.18 14.784)"/><path class="f" d="M-12.877-14.784l.279.86h.9l-.732.532.279.86-.732-.532-.732.532.279-.86-.732-.532h.9Z" transform="translate(24.299 14.784)"/><path class="f" d="M-12.877-14.784l.279.86h.9l-.732.532.279.86-.732-.532-.732.532.279-.86-.732-.532h.9Z" transform="translate(29.418 14.784)"/><path class="f" d="M-12.877-14.784l.279.86h.9l-.732.532.279.86-.732-.532-.732.532.279-.86-.732-.532h.9Z" transform="translate(34.537 14.784)"/></g></g><g transform="translate(0 17.41)"><path class="f" d="M-12.877-14.784l.279.86h.9l-.732.532.279.86-.732-.532-.732.532.279-.86-.732-.532h.9Z" transform="translate(14.06 14.784)"/><path class="f" d="M-12.877-14.784l.279.86h.9l-.732.532.279.86-.732-.532-.732.532.279-.86-.732-.532h.9Z" transform="translate(19.18 14.784)"/><path class="f" d="M-12.877-14.784l.279.86h.9l-.732.532.279.86-.732-.532-.732.532.279-.86-.732-.532h.9Z" transform="translate(24.299 14.784)"/><path class="f" d="M-12.877-14.784l.279.86h.9l-.732.532.279.86-.732-.532-.732.532.279-.86-.732-.532h.9Z" transform="translate(29.418 14.784)"/><path class="f" d="M-12.877-14.784l.279.86h.9l-.732.532.279.86-.732-.532-.732.532.279-.86-.732-.532h.9Z" transform="translate(34.538 14.784)"/><path class="f" d="M-12.877-14.784l.279.86h.9l-.732.532.279.86-.732-.532-.732.532.279-.86-.732-.532h.9Z" transform="translate(39.657 14.784)"/></g></g></g></svg>