<svg xmlns="http://www.w3.org/2000/svg" width="60.001" height="37.701" viewBox="0 0 60.001 37.701"><defs><style>.a{fill:#fdfdfd;}.b{fill:#818281;}.c{fill:#0e4595;}.d{fill:#f2ae14;}.e{fill:#f79f1a;}.f{fill:#ea001b;}.g{fill:#ff5f01;}</style></defs><g transform="translate(0 0)"><path class="a" d="M3.2,37.5a3,3,0,0,1-3-3V3.2a3,3,0,0,1,3-3H56.8a3,3,0,0,1,3,3V34.5a3,3,0,0,1-3,3Z"/><path class="b" d="M56.8.4a2.86,2.86,0,0,1,2.8,2.8V34.5a2.86,2.86,0,0,1-2.8,2.8H3.2A2.86,2.86,0,0,1,.4,34.5V3.2A2.86,2.86,0,0,1,3.2.4H56.8m0-.4H3.2A3.16,3.16,0,0,0,0,3.2V34.5a3.16,3.16,0,0,0,3.2,3.2H56.8A3.16,3.16,0,0,0,60,34.5V3.2A3.16,3.16,0,0,0,56.8,0Z"/><path class="c" d="M25,15.26,26.73,5.09h2.78L27.76,15.26Z"/><path class="c" d="M37.68,5.35a7.11,7.11,0,0,0-2.46-.46c-2.73,0-4.67,1.36-4.67,3.37,0,1.49,1.36,2.27,2.4,2.79s1.42.84,1.42,1.23c0,.65-.84,1-1.68,1a5.59,5.59,0,0,1-2.59-.52l-.39-.13-.39,2.27a9,9,0,0,0,3.11.52c2.92,0,4.8-1.36,4.8-3.5,0-1.17-.72-2-2.34-2.79-1-.45-1.55-.77-1.55-1.23s.52-.9,1.55-.9A5.73,5.73,0,0,1,37,7.42l.26.13.45-2.2"/><path class="c" d="M44.81,5.15H42.67A1.36,1.36,0,0,0,41.24,6l-4.08,9.34h2.92s.45-1.24.58-1.56h3.56l.33,1.49h2.59ZM41.44,11.7c.26-.59,1.1-2.85,1.1-2.85s.26-.59.39-1l.19.91s.52,2.4.65,2.92Z"/><path class="c" d="M22.58,5.15l-2.72,6.94-.26-1.43a8.14,8.14,0,0,0-3.82-4.28l2.46,8.88h2.91L25.5,5.15H22.58"/><path class="d" d="M17.4,5.15H12.93l-.07.2c3.5.84,5.77,2.85,6.74,5.31L18.63,6a1.13,1.13,0,0,0-1.23-.84"/><path class="e" d="M43.61,25.65a8.39,8.39,0,1,1-8.39-8.46,8.39,8.39,0,0,1,8.39,8.46Z"/><path class="f" d="M33.17,25.65a8.39,8.39,0,1,1-8.39-8.46A8.39,8.39,0,0,1,33.17,25.65Z"/><path class="g" d="M30,19a8.42,8.42,0,0,0-3.21,6.62A8.31,8.31,0,0,0,30,32.2,8.45,8.45,0,0,0,30,19Z"/></g></svg>